<mxfile host="app.diagrams.net" modified="2024-07-09T11:13:37.811Z" agent="Mozilla/5.0 (Windows NT 10.0; Win64; x64) AppleWebKit/537.36 (KHTML, like Gecko) Chrome/126.0.0.0 Safari/537.36" etag="DAlQTPMShyl4zoHD6uNo" version="24.6.4" type="github">
  <diagram name="Page-1" id="u7FDJixQ2gVYrPvAX92j">
    <mxGraphModel dx="925" dy="498" grid="1" gridSize="10" guides="1" tooltips="1" connect="1" arrows="1" fold="1" page="1" pageScale="1" pageWidth="850" pageHeight="1100" math="0" shadow="0">
      <root>
        <mxCell id="0" />
        <mxCell id="1" parent="0" />
        <mxCell id="FpLe6B1OdBc8xfIOSmFM-3" style="edgeStyle=orthogonalEdgeStyle;rounded=0;orthogonalLoop=1;jettySize=auto;html=1;entryX=0;entryY=0.5;entryDx=0;entryDy=0;entryPerimeter=0;fillColor=#fa6800;strokeColor=#000000;strokeWidth=1;snapToPoint=1;enumerate=0;comic=0;backgroundOutline=1;metaEdit=0;editable=1;movable=1;resizable=1;rotatable=1;deletable=1;locked=0;connectable=1;fixDash=0;noJump=0;flowAnimation=0;shadow=0;targetPerimeterSpacing=0;endArrow=classic;endFill=1;startArrow=oval;startFill=1;" edge="1" parent="1" source="FpLe6B1OdBc8xfIOSmFM-1" target="FpLe6B1OdBc8xfIOSmFM-4">
          <mxGeometry relative="1" as="geometry">
            <mxPoint x="110" y="150" as="targetPoint" />
            <Array as="points">
              <mxPoint x="70" y="90" />
            </Array>
          </mxGeometry>
        </mxCell>
        <mxCell id="FpLe6B1OdBc8xfIOSmFM-1" value="" style="strokeWidth=1;html=1;shape=mxgraph.flowchart.multi-document;whiteSpace=wrap;fillColor=#fa6800;strokeColor=#AD2E00;snapToPoint=1;enumerate=0;comic=0;backgroundOutline=1;metaEdit=0;editable=1;movable=1;resizable=1;rotatable=1;deletable=1;locked=0;connectable=1;fixDash=0;fontColor=#000000;" vertex="1" parent="1">
          <mxGeometry x="40" y="50" width="58.67" height="40" as="geometry" />
        </mxCell>
        <mxCell id="FpLe6B1OdBc8xfIOSmFM-4" value="" style="strokeWidth=1;html=1;shape=mxgraph.flowchart.multi-document;whiteSpace=wrap;fillColor=#fa6800;strokeColor=#AD2E00;snapToPoint=1;enumerate=0;comic=0;backgroundOutline=1;metaEdit=0;editable=1;movable=1;resizable=1;rotatable=1;deletable=1;locked=0;connectable=1;fixDash=0;fontColor=#000000;" vertex="1" parent="1">
          <mxGeometry x="90" y="110" width="58.67" height="40" as="geometry" />
        </mxCell>
        <mxCell id="FpLe6B1OdBc8xfIOSmFM-8" value="" style="strokeWidth=1;html=1;shape=mxgraph.flowchart.multi-document;whiteSpace=wrap;fillColor=#fa6800;strokeColor=#AD2E00;snapToPoint=1;enumerate=0;comic=0;backgroundOutline=1;metaEdit=0;editable=1;movable=1;resizable=1;rotatable=1;deletable=1;locked=0;connectable=1;fixDash=0;fontColor=#000000;" vertex="1" parent="1">
          <mxGeometry x="90" y="160" width="58.67" height="40" as="geometry" />
        </mxCell>
        <mxCell id="FpLe6B1OdBc8xfIOSmFM-9" style="edgeStyle=orthogonalEdgeStyle;rounded=0;orthogonalLoop=1;jettySize=auto;html=1;exitX=0.5;exitY=0.88;exitDx=0;exitDy=0;exitPerimeter=0;entryX=0;entryY=0.5;entryDx=0;entryDy=0;entryPerimeter=0;fillColor=#fa6800;strokeColor=#000000;" edge="1" parent="1" source="FpLe6B1OdBc8xfIOSmFM-1" target="FpLe6B1OdBc8xfIOSmFM-8">
          <mxGeometry relative="1" as="geometry" />
        </mxCell>
        <mxCell id="FpLe6B1OdBc8xfIOSmFM-10" value="" style="strokeWidth=1;html=1;shape=mxgraph.flowchart.multi-document;whiteSpace=wrap;fillColor=#fa6800;strokeColor=#AD2E00;snapToPoint=1;enumerate=0;comic=0;backgroundOutline=1;metaEdit=0;editable=1;movable=1;resizable=1;rotatable=1;deletable=1;locked=0;connectable=1;fixDash=0;fontColor=#000000;" vertex="1" parent="1">
          <mxGeometry x="90" y="210" width="58.67" height="40" as="geometry" />
        </mxCell>
        <mxCell id="FpLe6B1OdBc8xfIOSmFM-11" value="" style="strokeWidth=1;html=1;shape=mxgraph.flowchart.multi-document;whiteSpace=wrap;fillColor=#fa6800;strokeColor=#AD2E00;snapToPoint=1;enumerate=0;comic=0;backgroundOutline=1;metaEdit=0;editable=1;movable=1;resizable=1;rotatable=1;deletable=1;locked=0;connectable=1;fixDash=0;fontColor=#000000;" vertex="1" parent="1">
          <mxGeometry x="90" y="260" width="58.67" height="40" as="geometry" />
        </mxCell>
        <mxCell id="FpLe6B1OdBc8xfIOSmFM-12" style="edgeStyle=orthogonalEdgeStyle;rounded=0;orthogonalLoop=1;jettySize=auto;html=1;exitX=0.5;exitY=0.88;exitDx=0;exitDy=0;exitPerimeter=0;entryX=-0.014;entryY=0.594;entryDx=0;entryDy=0;entryPerimeter=0;fillColor=#fa6800;strokeColor=#000000;" edge="1" parent="1" source="FpLe6B1OdBc8xfIOSmFM-1" target="FpLe6B1OdBc8xfIOSmFM-10">
          <mxGeometry relative="1" as="geometry" />
        </mxCell>
        <mxCell id="FpLe6B1OdBc8xfIOSmFM-13" style="edgeStyle=orthogonalEdgeStyle;rounded=0;orthogonalLoop=1;jettySize=auto;html=1;exitX=0.5;exitY=0.88;exitDx=0;exitDy=0;exitPerimeter=0;entryX=0;entryY=0.5;entryDx=0;entryDy=0;entryPerimeter=0;fillColor=#fa6800;strokeColor=#000000;" edge="1" parent="1" source="FpLe6B1OdBc8xfIOSmFM-1" target="FpLe6B1OdBc8xfIOSmFM-11">
          <mxGeometry relative="1" as="geometry" />
        </mxCell>
      </root>
    </mxGraphModel>
  </diagram>
</mxfile>
